<?xml version="1.0" encoding="iso-8859-1"?>
<!-- Generator: Adobe Illustrator 12.0.0, SVG Export Plug-In . SVG Version: 6.00 Build 51448)  -->
<!DOCTYPE svg PUBLIC "-//W3C//DTD SVG 1.1//EN" "http://www.w3.org/Graphics/SVG/1.1/DTD/svg11.dtd" [
	<!ENTITY ns_svg "http://www.w3.org/2000/svg">
	<!ENTITY ns_xlink "http://www.w3.org/1999/xlink">
]>
<svg  version="1.1" id="&#x30EC;&#x30A4;&#x30E4;&#x30FC;_1" xmlns="&ns_svg;" xmlns:xlink="&ns_xlink;"
	 width="1072.325" height="163.125" viewBox="0 0 1072.325 163.125"
	 style="overflow:visible;enable-background:new 0 0 1072.325 163.125;" xml:space="preserve">
<path d="M208.534,25.375c0,0-109.833,6.5-134.333,20.5c0,0,4.333,4.916,66.75,5.083l-10.75,9.834c0,0-80.5-1.167-80.5-15.417
	S158.158,9,332.825,9L352.2,20.125c0,0-92.125,2.75-98.5,3.25l-88.875,52H203.2l-42.75,28H145.2l19.917-13.333l-27.292,1.708
	c0,0-68,42.5-102.75,71.375H0c0,0,32.867-24.416,93.034-67.416c0,0-63.333,8.416-71.333,14.166c0,0,4-19.875,47.25-26.25
	S118.075,79,118.075,79S182.492,37.5,208.534,25.375z"/>
<polygon points="359.45,55 390.367,32.875 361.45,30.542 337.284,50.958 "/>
<g>
	<g>
		<path d="M794.263,87.875c-3.875-3.063-9.313-6.313-9.313-6.313s-4.188-0.563-42.063,4.313l44.5-38.5h-23.813L735.075,71
			c0,0-9,6-31.875,11.5c0,0,9.25-9.125,42-35h-24.917c0,0-34.958,26-36.333,30.125c0,0-6.438,5.5-30.625,9
			c0,0-3.541,0.584-1.416-1.833s35.458-34.583,78.291-62.25h-26.874c0,0-34.792,25.666-38.876,29.333c0,0-5.25-6.5-21.083-6.5
			S601.7,60.708,592.2,78.542c0,0-9.264,4.125-20.083,6c-3.89,0.674-13.751,2.75-14.084,1.75s1.458-2.293,6.132-5.827
			c7.807-5.904,21.334-16.438,37.91-30.59l-26.75-0.625l-3.875,3.875c0,0-5.75-6.625-17.375-6.625s-32.25,7.5-55.25,31.25
			c0,0-17.125,6-33.375,10.5s-22.125,1.125-5.75-6s47.333-25.208,65.667-48.208s-4.833-19.667-26.833-7.667s-54,34.333-62.167,51
			c0,0-15.833,9.333-44.167,12.5c0,0,2.5-2.999,48.333-35.666l-27.5-2.667l-11.5,5.167c0,0-12.583,1.917-2.833-2.417l-16.667-3.084
			c0,0-17.435,15.711-34.333,27.667c-15.813,11.188-42.438,20.188-19.25,2.5l27.813-22.938L333.2,54.25
			c0,0-32.083,24.709-36.875,29.5c0,0-5.292,2.709-15.875,5.959s-16.833,6.25,4.583-10.583l27.25-21.5l-22.25-2.25l-6.5,3.999
			c0,0-7.458-7.125-18.583-7.125s-36.25,8.375-48,19.5S205.2,88.375,205.2,93.375s6.375,21.75,44.75,3.875c0,0,4,6.125,14.75,6.125
			s21.625-3.875,30.375-8.5c0,0,5,8.25,16,8.25s35.5-4.25,72.75-38.75c0,0,2.375,4.375,6.875,4.625c0,0-20.125,12.25-20.125,23.875
			s18.25,12.625,61.375-2.25c0,0-8.368,24.354,66.778-0.093c0.032-0.011,0.064-0.021,0.097-0.032c-0.097,0.032,3,8,13.875,8
			c0,0,12.375,0.5,26.375-7.375c0,0,1.125,6.125,11.625,6.125s23.875-1.875,41-8.25c0,0,8.375,17.625,40.625,1.125
			c0,0,1.125,15.75,50.875-2.5c0,0-0.375,14.75,37.25-0.125l-9.5,8.375c0,0-48.75,10.5-48.75,33.25c0,0,5,25.75,64-30.25
			c0,0,22.25-3.625,67.75-7.625C793.95,91.25,798.138,90.938,794.263,87.875z M497.2,40.542c16.5-11.417,27.333-14.416,6.75,2
			s-37.083,24.333-37.083,24.333C474.117,59.541,480.7,51.959,497.2,40.542z M235.95,91.792c0,0-13.833,5.083-9.667-1.084
			s12.25-12.166,23.75-19.666s24.5-5.417,24.5-5.417C244.117,91.708,235.95,91.792,235.95,91.792z M535.325,81.625
			C506.075,96,519.45,82,519.45,82s7.25-8.375,20.125-16.375S562.7,59.75,562.7,59.75C544.7,75.75,535.325,81.625,535.325,81.625z
			 M626.575,82.5c-26.375,12.875-15.625,0.75-15.625,0.75s12.5-16.5,27.25-22.375s17.5-2,17.5-2
			C629.825,82.25,626.575,82.5,626.575,82.5z M672.95,127.25c0,0,2.875-11.375,23.25-18.375
			C696.2,108.875,681.7,121.625,672.95,127.25z"/>
	</g>
</g>
<path d="M923.867,43.542l-22.292-6.792c-3.25-1.75-8,0.875-8,0.875l-16.25,7.875l28,7.375c-98.167,47-96.5,49.875-96.5,49.875
	C830.2,109,834.95,112,842.7,110.875s32.5-2.5,32.5-2.5s132.25,0,145.125,0s21.75-8.75,21.75-8.75l22.375-18.375h-34
	c-16.375,10.125-36.625,10.125-36.625,10.125L914.45,91.75c0,0,42.5-22.625,43.313-23s2.25-0.188,2.25-0.188
	s12.938,3.313,19.813,5.625s8.875,0.438,8.875,0.438L1005.45,67l-27.25-8c84-43.625,94.125-49.75,94.125-49.75l-29-9.25
	c-15.375,2.25-33.875,2.875-33.875,2.875s-127.625-0.125-142.25,0s-22.625,6.75-22.625,6.75L818.825,30.5H854.2
	c0,0,12.667-8.458,24.5-9.958s88.5-1,88.5-1L923.867,43.542z"/>
</svg>
